# xmcd
#
# Track frame offsets:
#	150
#	14125
#	27017
#	42252
#	62652
#	76137
#	89037
#	101067
#	115255
#	133480
#	146182
#
# Disc length: 2104 seconds
#
# Revision: 2
# Processed by: cddbd v1.5.1PL2 Copyright (c) Steve Scherf et al.
# Submitted via: EasyCDDAExtractor 9.0.0.1
#
DISCID=9f08360b
DTITLE=Claire Lynch - Moonlighter
DYEAR=1995
DGENRE=Bluegrass
TTITLE0=Second Wind
TTITLE1=Life Without You
TTITLE2=We Should Only Have Time For Love
TTITLE3=Moonlighter
TTITLE4=Children Of Abraham
TTITLE5=Pee Wee And Fern
TTITLE6=Bring Back The Good Times
TTITLE7=Thibodaux
TTITLE8=My Heart Is A Diamond
TTITLE9=Alabama State Of Mind
TTITLE10=Further In The Hole
EXTD=
EXTT0=
EXTT1=
EXTT2=
EXTT3=
EXTT4=
EXTT5=
EXTT6=
EXTT7=
EXTT8=
EXTT9=
EXTT10=
PLAYORDER=
